<svg xmlns="http://www.w3.org/2000/svg" xmlns:xlink="http://www.w3.org/1999/xlink" version="1.1" x="0px" y="0px" viewBox="0 0 48 60" style="enable-background:new 0 0 48 48;" xml:space="preserve">
<g>
    <path d="M4.5,24c0-6.19,2.84-11.88,7.8-15.6c0.22-0.17,0.27-0.48,0.1-0.7c-0.17-0.22-0.48-0.27-0.7-0.1   C6.49,11.51,3.5,17.49,3.5,24s2.99,12.49,8.2,16.4c0.09,0.07,0.2,0.1,0.3,0.1c0.15,0,0.3-0.07,0.4-0.2c0.17-0.22,0.12-0.53-0.1-0.7   C7.34,35.88,4.5,30.19,4.5,24z"/>
    <path d="M36.3,7.6c-0.22-0.17-0.53-0.12-0.7,0.1c-0.17,0.22-0.12,0.53,0.1,0.7c4.96,3.72,7.8,9.41,7.8,15.6s-2.84,11.88-7.8,15.6   c-0.22,0.17-0.27,0.48-0.1,0.7c0.1,0.13,0.25,0.2,0.4,0.2c0.1,0,0.21-0.03,0.3-0.1c5.21-3.91,8.2-9.89,8.2-16.4   S41.51,11.51,36.3,7.6z"/>
    <path d="M40.5,24c0-9.1-7.4-16.5-16.5-16.5S7.5,14.9,7.5,24S14.9,40.5,24,40.5S40.5,33.1,40.5,24z M24,39.5   c-8.55,0-15.5-6.95-15.5-15.5S15.45,8.5,24,8.5S39.5,15.45,39.5,24S32.55,39.5,24,39.5z"/>
    <path d="M26.5,13h-5c-0.14,0-0.27,0.06-0.36,0.16c-0.09,0.1-0.14,0.24-0.13,0.37l1,16c0.02,0.26,0.23,0.47,0.5,0.47h3   c0.26,0,0.48-0.21,0.5-0.47l1-16c0.01-0.14-0.04-0.27-0.13-0.37C26.77,13.06,26.64,13,26.5,13z M25.03,29h-2.06l-0.94-15h3.94   L25.03,29z"/>
    <path d="M25.5,31h-3c-0.28,0-0.5,0.22-0.5,0.5v3c0,0.28,0.22,0.5,0.5,0.5h3c0.28,0,0.5-0.22,0.5-0.5v-3C26,31.22,25.78,31,25.5,31z    M25,34h-2v-2h2V34z"/>
    <path d="M24,9.5C16,9.5,9.5,16,9.5,24S16,38.5,24,38.5S38.5,32,38.5,24S32,9.5,24,9.5z M24,37.5c-7.44,0-13.5-6.06-13.5-13.5   S16.56,10.5,24,10.5S37.5,16.56,37.5,24S31.44,37.5,24,37.5z"/>
    </g>
</svg>