<svg xmlns="http://www.w3.org/2000/svg" version="1.1" viewBox="-5.0 -10.0 110.0 135.0">
 <g>
  <path d="m54.602 83.836c-13.551 0-26.312-3.4531-35.93-9.7227-9.8125-6.3906-15.215-14.957-15.215-24.113s5.4023-17.723 15.215-24.117c9.6172-6.2695 22.379-9.7188 35.93-9.7188 0.80469 0 1.4531 0.65234 1.4531 1.4531v64.766c0 0.80469-0.65234 1.4531-1.4531 1.4531zm-1.457-64.75c-25.926 0.49609-46.777 14.172-46.777 30.914s20.855 30.418 46.781 30.914z"/>
  <path d="m45.961 74.641c-0.0625 0-0.125-0.003906-0.19141-0.011719-8.5977-1.1289-16.336-3.8047-22.379-7.7422-4.2148-2.75-11.293-8.6016-11.293-16.887s7.0742-14.137 11.293-16.883c6.043-3.9375 13.781-6.6172 22.379-7.7422 0.41406-0.054688 0.83203 0.074219 1.1484 0.34766 0.31641 0.27734 0.49609 0.67578 0.49609 1.0938v46.371c0 0.41797-0.17969 0.81641-0.49609 1.0938-0.26562 0.23047-0.60938 0.35938-0.95703 0.35938zm-1.457-46.145c-7.4297 1.1797-14.309 3.6602-19.523 7.0586-3.7227 2.4258-9.9727 7.5312-9.9727 14.445s6.2461 12.02 9.9727 14.445c5.2148 3.3984 12.098 5.8789 19.523 7.0586z"/>
  <path d="m95.09 19.07h-31.289c-0.80469 0-1.4531-0.65234-1.4531-1.4531 0-0.80469 0.65234-1.4531 1.4531-1.4531h31.285c0.80469 0 1.4531 0.65234 1.4531 1.4531 0.003907 0.80469-0.64844 1.4531-1.4492 1.4531z"/>
  <path d="m95.09 29.867h-31.289c-0.80469 0-1.4531-0.65234-1.4531-1.4531 0-0.80469 0.65234-1.4531 1.4531-1.4531h31.285c0.80469 0 1.4531 0.65234 1.4531 1.4531 0.003907 0.80078-0.64844 1.4531-1.4492 1.4531z"/>
  <path d="m95.09 40.66h-31.289c-0.80469 0-1.4531-0.65234-1.4531-1.4531 0-0.80469 0.65234-1.4531 1.4531-1.4531h31.285c0.80469 0 1.4531 0.65234 1.4531 1.4531 0.003907 0.80078-0.64844 1.4531-1.4492 1.4531z"/>
  <path d="m95.09 51.453h-31.289c-0.80469 0-1.4531-0.65234-1.4531-1.4531 0-0.80469 0.65234-1.4531 1.4531-1.4531h31.285c0.80469 0 1.4531 0.65234 1.4531 1.4531 0.003907 0.80469-0.64844 1.4531-1.4492 1.4531z"/>
  <path d="m95.09 62.25h-31.289c-0.80469 0-1.4531-0.65234-1.4531-1.4531 0-0.80469 0.65234-1.4531 1.4531-1.4531h31.285c0.80469 0 1.4531 0.65234 1.4531 1.4531 0.003907 0.80078-0.64844 1.4531-1.4492 1.4531z"/>
  <path d="m95.09 73.043h-31.289c-0.80469 0-1.4531-0.65234-1.4531-1.4531 0-0.80469 0.65234-1.4531 1.4531-1.4531h31.285c0.80469 0 1.4531 0.65234 1.4531 1.4531 0.003907 0.80078-0.64844 1.4531-1.4492 1.4531z"/>
  <path d="m95.09 83.836h-31.289c-0.80469 0-1.4531-0.65234-1.4531-1.4531 0-0.80469 0.65234-1.4531 1.4531-1.4531h31.285c0.80469 0 1.4531 0.65234 1.4531 1.4531 0.003907 0.80469-0.64844 1.4531-1.4492 1.4531z"/>
 </g></svg>